<svg width="6" height="7" viewBox="0 0 6 7" fill="none" xmlns="http://www.w3.org/2000/svg">
<path d="M5.69643 4.81781C5.6711 4.86008 5.63769 4.89693 5.59811 4.92628C5.55854 4.95563 5.51356 4.97689 5.46576 4.98884C5.41796 5.0008 5.36828 5.00322 5.31954 4.99597C5.27081 4.98871 5.22398 4.97192 5.18174 4.94656L3.24986 3.78719V5.875C3.24986 5.97446 3.21036 6.06984 3.14003 6.14016C3.0697 6.21049 2.97432 6.25 2.87486 6.25C2.77541 6.25 2.68003 6.21049 2.6097 6.14016C2.53937 6.06984 2.49986 5.97446 2.49986 5.875V3.78719L0.567989 4.94656C0.525761 4.9719 0.478955 4.98868 0.430244 4.99593C0.381532 5.00318 0.331869 5.00077 0.284091 4.98883C0.236312 4.97689 0.191353 4.95565 0.151781 4.92634C0.112209 4.89702 0.0787988 4.8602 0.0534578 4.81797C0.00227929 4.73269 -0.0129242 4.63056 0.0111918 4.53407C0.0353078 4.43758 0.0967679 4.35462 0.182052 4.30344L2.14611 3.125L0.182052 1.94656C0.139823 1.92122 0.103 1.88781 0.0736838 1.84824C0.0443676 1.80867 0.0231328 1.76371 0.0111918 1.71593C-0.000749262 1.66815 -0.00316274 1.61849 0.00408928 1.56978C0.0113413 1.52107 0.0281168 1.47426 0.0534578 1.43203C0.0787988 1.3898 0.112209 1.35298 0.151781 1.32366C0.191353 1.29435 0.236312 1.27311 0.284091 1.26117C0.331869 1.24923 0.381532 1.24682 0.430244 1.25407C0.478955 1.26132 0.525761 1.2781 0.567989 1.30344L2.49986 2.46281V0.375C2.49986 0.275544 2.53937 0.180161 2.6097 0.109835C2.68003 0.0395088 2.77541 0 2.87486 0C2.97432 0 3.0697 0.0395088 3.14003 0.109835C3.21036 0.180161 3.24986 0.275544 3.24986 0.375V2.46281L5.18174 1.30344C5.22397 1.2781 5.27077 1.26132 5.31948 1.25407C5.3682 1.24682 5.41786 1.24923 5.46564 1.26117C5.51342 1.27311 5.55837 1.29435 5.59795 1.32366C5.63752 1.35298 5.67093 1.3898 5.69627 1.43203C5.72161 1.47426 5.73839 1.52107 5.74564 1.56978C5.75289 1.61849 5.75048 1.66815 5.73854 1.71593C5.7266 1.76371 5.70536 1.80867 5.67604 1.84824C5.64673 1.88781 5.6099 1.92122 5.56768 1.94656L3.60361 3.125L5.56768 4.30344C5.65295 4.35459 5.71441 4.43751 5.73856 4.53397C5.7627 4.63043 5.74755 4.73252 5.69643 4.81781Z" fill="#E72828"/>
</svg>
